<?xml version="1.0" encoding="UTF-8" standalone="no"?>
<!DOCTYPE svg PUBLIC "-//W3C//DTD SVG 1.1//EN"
 "http://www.w3.org/Graphics/SVG/1.1/DTD/svg11.dtd">
<!-- Generated by graphviz version 2.43.0 (0)
 -->
<!-- Title: snakemake_dag Pages: 1 -->
<svg width="326pt" height="188pt"
 viewBox="0.00 0.00 326.00 188.00" xmlns="http://www.w3.org/2000/svg" xmlns:xlink="http://www.w3.org/1999/xlink">
<g id="graph0" class="graph" transform="scale(1 1) rotate(0) translate(4 184)">
<title>snakemake_dag</title>
<polygon fill="white" stroke="transparent" points="-4,4 -4,-184 322,-184 322,4 -4,4"/>
<!-- 0 -->
<g id="node1" class="node">
<title>0</title>
<path fill="none" stroke="#59d856" stroke-width="2" stroke-dasharray="5,2" d="M82,-36C82,-36 12,-36 12,-36 6,-36 0,-30 0,-24 0,-24 0,-12 0,-12 0,-6 6,0 12,0 12,0 82,0 82,0 88,0 94,-6 94,-12 94,-12 94,-24 94,-24 94,-30 88,-36 82,-36"/>
<text text-anchor="middle" x="47" y="-15.5" font-family="sans" font-size="10.00">samtools_index</text>
</g>
<!-- 1 -->
<g id="node2" class="node">
<title>1</title>
<path fill="none" stroke="#56d8d8" stroke-width="2" stroke-dasharray="5,2" d="M78,-108C78,-108 16,-108 16,-108 10,-108 4,-102 4,-96 4,-96 4,-84 4,-84 4,-78 10,-72 16,-72 16,-72 78,-72 78,-72 84,-72 90,-78 90,-84 90,-84 90,-96 90,-96 90,-102 84,-108 78,-108"/>
<text text-anchor="middle" x="47" y="-87.5" font-family="sans" font-size="10.00">samtools_sort</text>
</g>
<!-- 1&#45;&gt;0 -->
<g id="edge1" class="edge">
<title>1&#45;&gt;0</title>
<path fill="none" stroke="grey" stroke-width="2" d="M47,-71.7C47,-63.98 47,-54.71 47,-46.11"/>
<polygon fill="grey" stroke="grey" stroke-width="2" points="50.5,-46.1 47,-36.1 43.5,-46.1 50.5,-46.1"/>
</g>
<!-- 2 -->
<g id="node3" class="node">
<title>2</title>
<path fill="none" stroke="#d85656" stroke-width="2" stroke-dasharray="5,2" d="M67.5,-180C67.5,-180 26.5,-180 26.5,-180 20.5,-180 14.5,-174 14.5,-168 14.5,-168 14.5,-156 14.5,-156 14.5,-150 20.5,-144 26.5,-144 26.5,-144 67.5,-144 67.5,-144 73.5,-144 79.5,-150 79.5,-156 79.5,-156 79.5,-168 79.5,-168 79.5,-174 73.5,-180 67.5,-180"/>
<text text-anchor="middle" x="47" y="-165" font-family="sans" font-size="10.00">bwa_map</text>
<text text-anchor="middle" x="47" y="-154" font-family="sans" font-size="10.00">sample: C</text>
</g>
<!-- 2&#45;&gt;1 -->
<g id="edge2" class="edge">
<title>2&#45;&gt;1</title>
<path fill="none" stroke="grey" stroke-width="2" d="M47,-143.7C47,-135.98 47,-126.71 47,-118.11"/>
<polygon fill="grey" stroke="grey" stroke-width="2" points="50.5,-118.1 47,-108.1 43.5,-118.1 50.5,-118.1"/>
</g>
<!-- 3 -->
<g id="node4" class="node">
<title>3</title>
<path fill="none" stroke="#59d856" stroke-width="2" stroke-dasharray="5,2" d="M194,-36C194,-36 124,-36 124,-36 118,-36 112,-30 112,-24 112,-24 112,-12 112,-12 112,-6 118,0 124,0 124,0 194,0 194,0 200,0 206,-6 206,-12 206,-12 206,-24 206,-24 206,-30 200,-36 194,-36"/>
<text text-anchor="middle" x="159" y="-15.5" font-family="sans" font-size="10.00">samtools_index</text>
</g>
<!-- 4 -->
<g id="node5" class="node">
<title>4</title>
<path fill="none" stroke="#56d8d8" stroke-width="2" stroke-dasharray="5,2" d="M190,-108C190,-108 128,-108 128,-108 122,-108 116,-102 116,-96 116,-96 116,-84 116,-84 116,-78 122,-72 128,-72 128,-72 190,-72 190,-72 196,-72 202,-78 202,-84 202,-84 202,-96 202,-96 202,-102 196,-108 190,-108"/>
<text text-anchor="middle" x="159" y="-87.5" font-family="sans" font-size="10.00">samtools_sort</text>
</g>
<!-- 4&#45;&gt;3 -->
<g id="edge3" class="edge">
<title>4&#45;&gt;3</title>
<path fill="none" stroke="grey" stroke-width="2" d="M159,-71.7C159,-63.98 159,-54.71 159,-46.11"/>
<polygon fill="grey" stroke="grey" stroke-width="2" points="162.5,-46.1 159,-36.1 155.5,-46.1 162.5,-46.1"/>
</g>
<!-- 5 -->
<g id="node6" class="node">
<title>5</title>
<path fill="none" stroke="#d85656" stroke-width="2" stroke-dasharray="5,2" d="M179.5,-180C179.5,-180 138.5,-180 138.5,-180 132.5,-180 126.5,-174 126.5,-168 126.5,-168 126.5,-156 126.5,-156 126.5,-150 132.5,-144 138.5,-144 138.5,-144 179.5,-144 179.5,-144 185.5,-144 191.5,-150 191.5,-156 191.5,-156 191.5,-168 191.5,-168 191.5,-174 185.5,-180 179.5,-180"/>
<text text-anchor="middle" x="159" y="-165" font-family="sans" font-size="10.00">bwa_map</text>
<text text-anchor="middle" x="159" y="-154" font-family="sans" font-size="10.00">sample: A</text>
</g>
<!-- 5&#45;&gt;4 -->
<g id="edge4" class="edge">
<title>5&#45;&gt;4</title>
<path fill="none" stroke="grey" stroke-width="2" d="M159,-143.7C159,-135.98 159,-126.71 159,-118.11"/>
<polygon fill="grey" stroke="grey" stroke-width="2" points="162.5,-118.1 159,-108.1 155.5,-118.1 162.5,-118.1"/>
</g>
<!-- 6 -->
<g id="node7" class="node">
<title>6</title>
<path fill="none" stroke="#59d856" stroke-width="2" stroke-dasharray="5,2" d="M306,-36C306,-36 236,-36 236,-36 230,-36 224,-30 224,-24 224,-24 224,-12 224,-12 224,-6 230,0 236,0 236,0 306,0 306,0 312,0 318,-6 318,-12 318,-12 318,-24 318,-24 318,-30 312,-36 306,-36"/>
<text text-anchor="middle" x="271" y="-15.5" font-family="sans" font-size="10.00">samtools_index</text>
</g>
<!-- 7 -->
<g id="node8" class="node">
<title>7</title>
<path fill="none" stroke="#56d8d8" stroke-width="2" stroke-dasharray="5,2" d="M302,-108C302,-108 240,-108 240,-108 234,-108 228,-102 228,-96 228,-96 228,-84 228,-84 228,-78 234,-72 240,-72 240,-72 302,-72 302,-72 308,-72 314,-78 314,-84 314,-84 314,-96 314,-96 314,-102 308,-108 302,-108"/>
<text text-anchor="middle" x="271" y="-87.5" font-family="sans" font-size="10.00">samtools_sort</text>
</g>
<!-- 7&#45;&gt;6 -->
<g id="edge5" class="edge">
<title>7&#45;&gt;6</title>
<path fill="none" stroke="grey" stroke-width="2" d="M271,-71.7C271,-63.98 271,-54.71 271,-46.11"/>
<polygon fill="grey" stroke="grey" stroke-width="2" points="274.5,-46.1 271,-36.1 267.5,-46.1 274.5,-46.1"/>
</g>
<!-- 8 -->
<g id="node9" class="node">
<title>8</title>
<path fill="none" stroke="#d85656" stroke-width="2" stroke-dasharray="5,2" d="M291.5,-180C291.5,-180 250.5,-180 250.5,-180 244.5,-180 238.5,-174 238.5,-168 238.5,-168 238.5,-156 238.5,-156 238.5,-150 244.5,-144 250.5,-144 250.5,-144 291.5,-144 291.5,-144 297.5,-144 303.5,-150 303.5,-156 303.5,-156 303.5,-168 303.5,-168 303.5,-174 297.5,-180 291.5,-180"/>
<text text-anchor="middle" x="271" y="-165" font-family="sans" font-size="10.00">bwa_map</text>
<text text-anchor="middle" x="271" y="-154" font-family="sans" font-size="10.00">sample: B</text>
</g>
<!-- 8&#45;&gt;7 -->
<g id="edge6" class="edge">
<title>8&#45;&gt;7</title>
<path fill="none" stroke="grey" stroke-width="2" d="M271,-143.7C271,-135.98 271,-126.71 271,-118.11"/>
<polygon fill="grey" stroke="grey" stroke-width="2" points="274.5,-118.1 271,-108.1 267.5,-118.1 274.5,-118.1"/>
</g>
</g>
</svg>
