<?xml version="1.0" encoding="UTF-8" standalone="no"?>
<!DOCTYPE svg PUBLIC "-//W3C//DTD SVG 1.1//EN"
 "http://www.w3.org/Graphics/SVG/1.1/DTD/svg11.dtd">
<!-- Generated by graphviz version 2.43.0 (0)
 -->
<!-- Title: snakemake_dag Pages: 1 -->
<svg width="435pt" height="332pt"
 viewBox="0.00 0.00 435.00 332.00" xmlns="http://www.w3.org/2000/svg" xmlns:xlink="http://www.w3.org/1999/xlink">
<g id="graph0" class="graph" transform="scale(1 1) rotate(0) translate(4 328)">
<title>snakemake_dag</title>
<polygon fill="white" stroke="transparent" points="-4,4 -4,-328 431,-328 431,4 -4,4"/>
<!-- 0 -->
<g id="node1" class="node">
<title>0</title>
<path fill="none" stroke="#d85656" stroke-width="2" stroke-dasharray="5,2" d="M207,-36C207,-36 177,-36 177,-36 171,-36 165,-30 165,-24 165,-24 165,-12 165,-12 165,-6 171,0 177,0 177,0 207,0 207,0 213,0 219,-6 219,-12 219,-12 219,-24 219,-24 219,-30 213,-36 207,-36"/>
<text text-anchor="middle" x="192" y="-15.5" font-family="sans" font-size="10.00">report</text>
</g>
<!-- 1 -->
<g id="node2" class="node">
<title>1</title>
<path fill="none" stroke="#d8ac56" stroke-width="2" stroke-dasharray="5,2" d="M219,-108C219,-108 165,-108 165,-108 159,-108 153,-102 153,-96 153,-96 153,-84 153,-84 153,-78 159,-72 165,-72 165,-72 219,-72 219,-72 225,-72 231,-78 231,-84 231,-84 231,-96 231,-96 231,-102 225,-108 219,-108"/>
<text text-anchor="middle" x="192" y="-87.5" font-family="sans" font-size="10.00">bcftools_call</text>
</g>
<!-- 1&#45;&gt;0 -->
<g id="edge1" class="edge">
<title>1&#45;&gt;0</title>
<path fill="none" stroke="grey" stroke-width="2" d="M192,-71.7C192,-63.98 192,-54.71 192,-46.11"/>
<polygon fill="grey" stroke="grey" stroke-width="2" points="195.5,-46.1 192,-36.1 188.5,-46.1 195.5,-46.1"/>
</g>
<!-- 2 -->
<g id="node3" class="node">
<title>2</title>
<path fill="none" stroke="#afd856" stroke-width="2" stroke-dasharray="5,2" d="M74,-252C74,-252 12,-252 12,-252 6,-252 0,-246 0,-240 0,-240 0,-228 0,-228 0,-222 6,-216 12,-216 12,-216 74,-216 74,-216 80,-216 86,-222 86,-228 86,-228 86,-240 86,-240 86,-246 80,-252 74,-252"/>
<text text-anchor="middle" x="43" y="-231.5" font-family="sans" font-size="10.00">samtools_sort</text>
</g>
<!-- 2&#45;&gt;1 -->
<g id="edge2" class="edge">
<title>2&#45;&gt;1</title>
<path fill="none" stroke="grey" stroke-width="2" d="M32.05,-215.92C21.24,-196.67 8.4,-165.28 24,-144 50.97,-107.21 103.55,-95.3 142.74,-91.76"/>
<polygon fill="grey" stroke="grey" stroke-width="2" points="143.19,-95.24 152.9,-91.01 142.66,-88.26 143.19,-95.24"/>
</g>
<!-- 8 -->
<g id="node9" class="node">
<title>8</title>
<path fill="none" stroke="#56d8a9" stroke-width="2" stroke-dasharray="5,2" d="M115,-180C115,-180 45,-180 45,-180 39,-180 33,-174 33,-168 33,-168 33,-156 33,-156 33,-150 39,-144 45,-144 45,-144 115,-144 115,-144 121,-144 127,-150 127,-156 127,-156 127,-168 127,-168 127,-174 121,-180 115,-180"/>
<text text-anchor="middle" x="80" y="-159.5" font-family="sans" font-size="10.00">samtools_index</text>
</g>
<!-- 2&#45;&gt;8 -->
<g id="edge11" class="edge">
<title>2&#45;&gt;8</title>
<path fill="none" stroke="grey" stroke-width="2" d="M52.15,-215.7C56.4,-207.64 61.56,-197.89 66.27,-188.98"/>
<polygon fill="grey" stroke="grey" stroke-width="2" points="69.38,-190.58 70.96,-180.1 63.19,-187.31 69.38,-190.58"/>
</g>
<!-- 3 -->
<g id="node4" class="node">
<title>3</title>
<path fill="none" stroke="#59d856" stroke-width="2" stroke-dasharray="5,2" d="M63.5,-324C63.5,-324 22.5,-324 22.5,-324 16.5,-324 10.5,-318 10.5,-312 10.5,-312 10.5,-300 10.5,-300 10.5,-294 16.5,-288 22.5,-288 22.5,-288 63.5,-288 63.5,-288 69.5,-288 75.5,-294 75.5,-300 75.5,-300 75.5,-312 75.5,-312 75.5,-318 69.5,-324 63.5,-324"/>
<text text-anchor="middle" x="43" y="-309" font-family="sans" font-size="10.00">bwa_map</text>
<text text-anchor="middle" x="43" y="-298" font-family="sans" font-size="10.00">sample: A</text>
</g>
<!-- 3&#45;&gt;2 -->
<g id="edge8" class="edge">
<title>3&#45;&gt;2</title>
<path fill="none" stroke="grey" stroke-width="2" d="M43,-287.7C43,-279.98 43,-270.71 43,-262.11"/>
<polygon fill="grey" stroke="grey" stroke-width="2" points="46.5,-262.1 43,-252.1 39.5,-262.1 46.5,-262.1"/>
</g>
<!-- 4 -->
<g id="node5" class="node">
<title>4</title>
<path fill="none" stroke="#afd856" stroke-width="2" stroke-dasharray="5,2" d="M235,-252C235,-252 173,-252 173,-252 167,-252 161,-246 161,-240 161,-240 161,-228 161,-228 161,-222 167,-216 173,-216 173,-216 235,-216 235,-216 241,-216 247,-222 247,-228 247,-228 247,-240 247,-240 247,-246 241,-252 235,-252"/>
<text text-anchor="middle" x="204" y="-231.5" font-family="sans" font-size="10.00">samtools_sort</text>
</g>
<!-- 4&#45;&gt;1 -->
<g id="edge3" class="edge">
<title>4&#45;&gt;1</title>
<path fill="none" stroke="grey" stroke-width="2" d="M191.27,-215.85C184.71,-205.92 177.39,-192.88 174,-180 168.56,-159.36 173.91,-135.65 180.16,-117.89"/>
<polygon fill="grey" stroke="grey" stroke-width="2" points="183.57,-118.79 183.87,-108.2 177.03,-116.29 183.57,-118.79"/>
</g>
<!-- 9 -->
<g id="node10" class="node">
<title>9</title>
<path fill="none" stroke="#56d8a9" stroke-width="2" stroke-dasharray="5,2" d="M265,-180C265,-180 195,-180 195,-180 189,-180 183,-174 183,-168 183,-168 183,-156 183,-156 183,-150 189,-144 195,-144 195,-144 265,-144 265,-144 271,-144 277,-150 277,-156 277,-156 277,-168 277,-168 277,-174 271,-180 265,-180"/>
<text text-anchor="middle" x="230" y="-159.5" font-family="sans" font-size="10.00">samtools_index</text>
</g>
<!-- 4&#45;&gt;9 -->
<g id="edge12" class="edge">
<title>4&#45;&gt;9</title>
<path fill="none" stroke="grey" stroke-width="2" d="M210.43,-215.7C213.36,-207.81 216.89,-198.3 220.14,-189.55"/>
<polygon fill="grey" stroke="grey" stroke-width="2" points="223.45,-190.7 223.65,-180.1 216.88,-188.26 223.45,-190.7"/>
</g>
<!-- 5 -->
<g id="node6" class="node">
<title>5</title>
<path fill="none" stroke="#59d856" stroke-width="2" stroke-dasharray="5,2" d="M224.5,-324C224.5,-324 183.5,-324 183.5,-324 177.5,-324 171.5,-318 171.5,-312 171.5,-312 171.5,-300 171.5,-300 171.5,-294 177.5,-288 183.5,-288 183.5,-288 224.5,-288 224.5,-288 230.5,-288 236.5,-294 236.5,-300 236.5,-300 236.5,-312 236.5,-312 236.5,-318 230.5,-324 224.5,-324"/>
<text text-anchor="middle" x="204" y="-309" font-family="sans" font-size="10.00">bwa_map</text>
<text text-anchor="middle" x="204" y="-298" font-family="sans" font-size="10.00">sample: B</text>
</g>
<!-- 5&#45;&gt;4 -->
<g id="edge9" class="edge">
<title>5&#45;&gt;4</title>
<path fill="none" stroke="grey" stroke-width="2" d="M204,-287.7C204,-279.98 204,-270.71 204,-262.11"/>
<polygon fill="grey" stroke="grey" stroke-width="2" points="207.5,-262.1 204,-252.1 200.5,-262.1 207.5,-262.1"/>
</g>
<!-- 6 -->
<g id="node7" class="node">
<title>6</title>
<path fill="none" stroke="#afd856" stroke-width="2" stroke-dasharray="5,2" d="M362,-252C362,-252 300,-252 300,-252 294,-252 288,-246 288,-240 288,-240 288,-228 288,-228 288,-222 294,-216 300,-216 300,-216 362,-216 362,-216 368,-216 374,-222 374,-228 374,-228 374,-240 374,-240 374,-246 368,-252 362,-252"/>
<text text-anchor="middle" x="331" y="-231.5" font-family="sans" font-size="10.00">samtools_sort</text>
</g>
<!-- 6&#45;&gt;1 -->
<g id="edge4" class="edge">
<title>6&#45;&gt;1</title>
<path fill="none" stroke="grey" stroke-width="2" d="M325.71,-215.79C319.04,-196.41 305.98,-164.9 286,-144 273.23,-130.64 256.35,-119.71 240.41,-111.31"/>
<polygon fill="grey" stroke="grey" stroke-width="2" points="241.69,-108.04 231.18,-106.67 238.54,-114.29 241.69,-108.04"/>
</g>
<!-- 10 -->
<g id="node11" class="node">
<title>10</title>
<path fill="none" stroke="#56d8a9" stroke-width="2" stroke-dasharray="5,2" d="M415,-180C415,-180 345,-180 345,-180 339,-180 333,-174 333,-168 333,-168 333,-156 333,-156 333,-150 339,-144 345,-144 345,-144 415,-144 415,-144 421,-144 427,-150 427,-156 427,-156 427,-168 427,-168 427,-174 421,-180 415,-180"/>
<text text-anchor="middle" x="380" y="-159.5" font-family="sans" font-size="10.00">samtools_index</text>
</g>
<!-- 6&#45;&gt;10 -->
<g id="edge13" class="edge">
<title>6&#45;&gt;10</title>
<path fill="none" stroke="grey" stroke-width="2" d="M343.11,-215.7C348.87,-207.47 355.86,-197.48 362.21,-188.42"/>
<polygon fill="grey" stroke="grey" stroke-width="2" points="365.16,-190.3 368.03,-180.1 359.42,-186.29 365.16,-190.3"/>
</g>
<!-- 7 -->
<g id="node8" class="node">
<title>7</title>
<path fill="none" stroke="#59d856" stroke-width="2" stroke-dasharray="5,2" d="M351.5,-324C351.5,-324 310.5,-324 310.5,-324 304.5,-324 298.5,-318 298.5,-312 298.5,-312 298.5,-300 298.5,-300 298.5,-294 304.5,-288 310.5,-288 310.5,-288 351.5,-288 351.5,-288 357.5,-288 363.5,-294 363.5,-300 363.5,-300 363.5,-312 363.5,-312 363.5,-318 357.5,-324 351.5,-324"/>
<text text-anchor="middle" x="331" y="-309" font-family="sans" font-size="10.00">bwa_map</text>
<text text-anchor="middle" x="331" y="-298" font-family="sans" font-size="10.00">sample: C</text>
</g>
<!-- 7&#45;&gt;6 -->
<g id="edge10" class="edge">
<title>7&#45;&gt;6</title>
<path fill="none" stroke="grey" stroke-width="2" d="M331,-287.7C331,-279.98 331,-270.71 331,-262.11"/>
<polygon fill="grey" stroke="grey" stroke-width="2" points="334.5,-262.1 331,-252.1 327.5,-262.1 334.5,-262.1"/>
</g>
<!-- 8&#45;&gt;1 -->
<g id="edge5" class="edge">
<title>8&#45;&gt;1</title>
<path fill="none" stroke="grey" stroke-width="2" d="M107.4,-143.88C121.91,-134.81 139.92,-123.55 155.59,-113.76"/>
<polygon fill="grey" stroke="grey" stroke-width="2" points="157.87,-116.46 164.5,-108.19 154.16,-110.52 157.87,-116.46"/>
</g>
<!-- 9&#45;&gt;1 -->
<g id="edge6" class="edge">
<title>9&#45;&gt;1</title>
<path fill="none" stroke="grey" stroke-width="2" d="M220.61,-143.7C216.24,-135.64 210.94,-125.89 206.1,-116.98"/>
<polygon fill="grey" stroke="grey" stroke-width="2" points="209.13,-115.22 201.29,-108.1 202.98,-118.56 209.13,-115.22"/>
</g>
<!-- 10&#45;&gt;1 -->
<g id="edge7" class="edge">
<title>10&#45;&gt;1</title>
<path fill="none" stroke="grey" stroke-width="2" d="M334.01,-143.88C305.69,-133.33 269.42,-119.82 240.62,-109.1"/>
<polygon fill="grey" stroke="grey" stroke-width="2" points="241.76,-105.79 231.16,-105.58 239.31,-112.35 241.76,-105.79"/>
</g>
</g>
</svg>
